<svg width="48" height="48" viewBox="0 0 48 48" fill="none" xmlns="http://www.w3.org/2000/svg">
<rect width="48" height="48" fill="#FDFDFD"/>
<path d="M23.5583 8.09468C24.343 7.70113 25.3008 8.61415 24.8832 9.36828C24.6411 9.98292 23.7231 10.1464 23.2542 9.67789C22.758 9.2281 22.92 8.33932 23.5583 8.09468ZM15.1189 8.96961C15.5956 8.7808 16.1989 9.20095 16.1502 9.70075C16.2008 10.2432 15.5113 10.6427 15.0255 10.3848C14.3818 10.145 14.4554 9.13972 15.1189 8.96975V8.96961ZM32.4037 10.4C31.6588 10.3134 31.541 9.18695 32.2581 8.95936C32.8144 8.69837 33.3246 9.18779 33.406 9.69493C33.2893 10.128 32.9123 10.5246 32.4037 10.3993V10.4ZM17.0389 12.4244C17.8358 11.9396 18.9728 12.6616 18.8503 13.552C18.8089 14.4511 17.5675 14.9719 16.8672 14.3641C16.1904 13.8867 16.2927 12.7914 17.0389 12.4247V12.4244ZM29.2035 12.9392C29.5593 12.0587 30.9999 12.031 31.4045 12.8899C31.8044 13.5576 31.3125 14.3844 30.6 14.6113C29.656 14.7809 28.7595 13.7993 29.2039 12.9399L29.2035 12.9392ZM22.542 14.5611C22.5342 13.8035 23.2515 13.239 24 13.1874C24.4964 13.2832 25.0375 13.4867 25.2505 13.9686C25.6474 14.6335 25.295 15.5486 24.5779 15.8538C24.25 16.0305 23.8622 15.9646 23.5051 15.9437C22.9592 15.6859 22.4994 15.1803 22.5421 14.5612L22.542 14.5611ZM9.9915 15.6648C10.7194 15.2343 11.7015 16.02 11.4259 16.7807C11.2741 17.4386 10.3547 17.7063 9.82906 17.2863C9.26746 16.8927 9.35689 15.9463 9.9915 15.6648ZM36.942 15.6634C37.5597 15.2022 38.5787 15.7313 38.5052 16.4807C38.5466 17.1648 37.6655 17.6805 37.0523 17.3284C36.3771 17.0365 36.3083 16.0372 36.942 15.6627V15.6634ZM26.0714 17.0246C27.0905 16.6725 28.3011 17.0939 28.882 17.968C29.6483 19.0365 29.2406 20.6638 28.0514 21.2769C26.8194 22.0021 25.0202 21.3877 24.5652 20.0638C24.0485 18.8789 24.8012 17.396 26.0714 17.0246V17.0246ZM20.0918 17.1419C21.2214 16.6294 22.7414 17.0588 23.2871 18.1708C23.9292 19.2526 23.4326 20.7591 22.2848 21.3176C21.1355 21.9456 19.5141 21.47 18.9584 20.3079C18.3342 19.1848 18.888 17.6592 20.0918 17.1419ZM14.1044 19.1111C14.1908 18.411 14.8769 17.9555 15.5695 17.9083C16.3158 17.9948 16.912 18.5524 16.9931 19.2797C16.9441 19.9989 16.3662 20.702 15.574 20.6976C14.7022 20.7698 13.938 19.9357 14.1044 19.1116V19.1111ZM31.7891 18.061C32.6841 17.5599 33.9268 18.2895 33.8871 19.2785C33.9484 20.3265 32.5731 21.0655 31.6818 20.4503C30.7561 19.9385 30.8282 18.4971 31.7891 18.0612V18.061ZM17.6584 21.754C18.7051 21.4769 19.9019 21.9515 20.4153 22.877C20.9769 23.8086 20.7477 25.1027 19.8744 25.7861C18.7542 26.7883 16.6884 26.3859 16.0922 25.0181C15.4072 23.7643 16.2392 22.084 17.6584 21.7539V21.754ZM29 21.7487C30.0175 21.4688 31.2128 21.8457 31.7599 22.7378C32.4832 23.7578 32.1379 25.2789 31.0612 25.9364C29.9332 26.6998 28.1862 26.2989 27.5656 25.1052C26.8132 23.8704 27.5703 22.1254 29 21.7487V21.7487ZM10.9261 22.9123C11.8302 22.5834 12.8325 23.5432 12.4661 24.4055C12.2425 25.191 11.0917 25.4819 10.4971 24.9023C9.80142 24.3584 10.059 23.1483 10.9262 22.9123H10.9261ZM35.4336 24.1638C35.4076 23.4435 35.9556 22.8049 36.7239 22.7647C37.3431 22.859 37.9451 23.3396 37.8962 23.988C37.9529 24.8445 36.8801 25.4266 36.1215 25.0242C35.766 24.8503 35.5837 24.4996 35.4336 24.1634V24.1638ZM6.48062 23.3347C7.02451 23.1063 7.69743 23.5598 7.5733 24.1409C7.5445 24.7989 6.53433 25.0519 6.16339 24.5021C5.8355 24.121 6.03163 23.5323 6.48062 23.3347ZM40.7785 23.3209C41.1615 23.0585 41.7761 23.247 41.9278 23.6776C42.1852 24.1477 41.7132 24.7919 41.1631 24.7124C40.3908 24.7801 40.1407 23.6479 40.7785 23.3209ZM20.6131 26.4792C22.0445 26.1212 23.5831 27.2688 23.5922 28.6872C23.6856 30.1198 22.1702 31.3904 20.705 31.0595C19.5724 30.8841 18.6838 29.8346 18.7205 28.7336C18.7175 27.6808 19.5435 26.702 20.6133 26.4792H20.6131ZM26.2818 26.4763C27.7346 26.0857 29.3191 27.2544 29.296 28.7051C29.3728 30.1112 27.9046 31.339 26.47 31.06C25.12 30.8921 24.124 29.4653 24.5008 28.205C24.6911 27.3653 25.4204 26.6823 26.2818 26.4763V26.4763ZM15.3522 27.349C16.3575 27.1841 17.2999 28.2633 16.8923 29.1812C16.5949 30.1597 15.1146 30.4251 14.4601 29.6259C13.6925 28.8583 14.2656 27.455 15.3522 27.349V27.349ZM31.976 27.3935C32.8724 27.0324 33.9727 27.7782 33.9038 28.7142C33.9398 29.7446 32.5813 30.4549 31.7047 29.8536C30.7111 29.3133 30.8926 27.7249 31.976 27.3935ZM36.6226 31.8769C36.2717 31.2474 36.9092 30.4132 37.6357 30.5297C37.9973 30.5239 38.2503 30.7979 38.4817 31.0284C38.5292 31.4015 38.609 31.8457 38.2871 32.1339C37.8501 32.6659 36.8601 32.5141 36.6226 31.8774V31.8769ZM9.98876 30.7051C10.6677 30.2703 11.6448 30.9187 11.4921 31.6824C11.4109 32.3577 10.5273 32.7437 9.94412 32.3612C9.31901 32.0133 9.34205 31.0229 9.98876 30.7058V30.7051ZM23.4024 32.1195C24.2913 31.7421 25.4236 32.4865 25.3393 33.4284C25.4053 34.469 24.0046 35.1897 23.1361 34.5643C22.1713 34.0276 22.3318 32.449 23.403 32.119L23.4024 32.1195ZM17.1888 33.513C17.9458 33.1299 18.9619 33.7916 18.8929 34.6074C18.9159 35.2766 18.237 35.847 17.5504 35.7481C16.9817 35.7364 16.6109 35.246 16.4286 34.7797C16.438 34.2714 16.6554 33.7054 17.1888 33.5137V33.513ZM29.7734 33.5255C30.5519 33.0627 31.6584 33.7275 31.5848 34.5991C31.6048 35.51 30.3543 36.0936 29.6294 35.4952C28.9275 35.0261 29.0132 33.8985 29.7734 33.5255ZM31.9622 38.73C31.6166 38.2259 32.0236 37.6186 32.5859 37.5038C33.038 37.5923 33.5161 37.9194 33.4211 38.4236C33.3551 39.106 32.3176 39.3154 31.9622 38.73ZM14.5901 38.2923C14.7281 37.8928 15.0622 37.4958 15.5511 37.5997C16.2637 37.6483 16.4753 38.6816 15.8514 39C15.2906 39.3638 14.6398 38.8657 14.5901 38.2923ZM22.971 38.7507C23.1075 38.1597 23.9027 37.8723 24.4268 38.1862C24.7724 38.3293 24.8742 38.7021 24.9632 39.0189C24.9157 39.1838 24.8732 39.3491 24.8315 39.5141C24.6169 39.7587 24.3419 40.0035 23.984 39.9946C23.3203 40.0694 22.7217 39.3477 22.971 38.7507Z" fill="#1232A6"/>
</svg>
