<svg width="48" height="48" viewBox="0 0 48 48" fill="none" xmlns="http://www.w3.org/2000/svg">
<rect width="48" height="48" fill="#F5AC37"/>
<path fill-rule="evenodd" clip-rule="evenodd" d="M13.824 37.8848V37.9789L13.8196 37.9823V37.9981H24.436C25.6376 38.0151 26.8348 37.9165 28.0155 37.699C29.259 37.4486 30.4705 37.0542 31.6259 36.5194C32.1268 36.2807 32.6075 35.9922 33.0924 35.7011C33.2151 35.6274 33.3382 35.5536 33.4619 35.4803C34.0324 35.0622 34.5787 34.609 35.0985 34.1274C36.5215 32.8039 37.6229 31.153 38.3113 29.3117C38.3576 29.1054 38.5536 28.9729 38.7552 29.0125H41.6463C41.8765 29.0125 41.9525 28.9332 41.9525 28.6658V26.761C41.9679 26.5786 41.9679 26.3939 41.9525 26.2115C41.9525 26.1638 41.9644 26.1162 41.9763 26.0688C42 25.9741 42.0237 25.8798 41.9525 25.7854H39.5372C39.2453 25.7854 39.2453 25.7537 39.2453 25.4863C39.329 24.5277 39.329 23.5656 39.2453 22.607C39.2299 22.3238 39.2915 22.3238 39.5052 22.3238H41.6166C41.8622 22.3238 41.9536 22.2603 41.9536 22.0087V19.4275C41.9459 19.2549 41.9421 19.1682 41.8968 19.1247C41.8511 19.0808 41.7633 19.0808 41.5869 19.0808H38.8488C38.6351 19.1182 38.4303 18.9697 38.3917 18.7499C38.0778 17.9057 37.678 17.0978 37.1967 16.342C36.7121 15.5965 36.1658 14.8962 35.56 14.2492C34.7549 13.422 33.8507 12.7036 32.8682 12.1087C31.3869 11.2238 29.7667 10.604 28.0805 10.2833C27.2621 10.128 26.435 10.034 25.6023 10H14.1302C13.824 10 13.824 10.0635 13.824 10.315V18.7975C13.824 19.0966 13.7624 19.0966 13.5333 19.0966H10.2445C10 19.0966 10 19.1431 10 19.3165V22.0858C10 22.3374 10.076 22.3374 10.2599 22.3374H13.5795C13.824 22.3374 13.824 22.3838 13.824 22.573V25.5316C13.824 25.799 13.7469 25.799 13.5487 25.799H10V28.7893C10 29.0409 10.076 29.0409 10.2599 29.0409H13.5795C13.824 29.0409 13.824 29.0715 13.824 29.2765V32.975V34.2181V37.8848ZM34.9499 18.827C34.9763 18.8972 34.9763 18.9754 34.9499 19.0468H35.0236C34.9928 19.1408 34.8397 19.1726 34.8397 19.1726H17.1877C16.8969 19.1726 16.8969 19.1091 16.8969 18.8734V13.2872C16.8969 13.0821 16.9278 12.988 17.1568 12.988H25.371C26.2455 12.9801 27.1178 13.0741 27.9714 13.2713C29.6632 13.6838 31.2371 14.5041 32.5609 15.6633C32.8253 15.8661 33.061 16.1052 33.2647 16.3715C33.6965 16.8123 34.0753 17.3029 34.397 17.8355C34.6106 18.1471 34.7946 18.4791 34.9499 18.827ZM35.6823 25.782H26.3821H17.2648C17.0805 25.782 16.9888 25.782 16.9432 25.7362C16.898 25.6908 16.898 25.6004 16.898 25.4205V22.6195C16.898 22.3985 16.9597 22.3203 17.1888 22.3203H35.6977C35.8971 22.3203 35.9885 22.3985 35.9885 22.5878C36.0645 23.5622 36.0645 24.5413 35.9885 25.5146C35.9741 25.782 35.8805 25.782 35.6823 25.782ZM34.9499 29.0556C34.6899 29.0261 34.4278 29.0261 34.1679 29.0556H17.2042C16.9751 29.0556 16.898 29.0556 16.898 29.3706V34.8322C16.898 35.0838 16.898 35.1472 17.2042 35.1472H25.0362C25.4107 35.1767 25.7852 35.1495 26.1519 35.069C27.2886 34.9852 28.4065 34.7314 29.4726 34.3132C29.8603 34.175 30.2348 33.9948 30.5883 33.7784H30.6952C32.5312 32.796 34.0225 31.2527 34.9631 29.3581C34.9631 29.3581 35.0699 29.1202 34.9499 29.0578V29.0556Z" fill="#FEFEFD"/>
</svg>
