<svg width="48" height="48" viewBox="0 0 48 48" fill="none" xmlns="http://www.w3.org/2000/svg">
<path d="M0 24C0 10.7452 10.7452 0 24 0V0C37.2548 0 48 10.7452 48 24V24C48 37.2548 37.2548 48 24 48V48C10.7452 48 0 37.2548 0 24V24Z" fill="#F19F39"/>
<path d="M30.5589 11.873C28.4997 10.6818 26.1089 10 23.5589 10C17.0355 10 11.5541 14.4617 10 20.5H24.4339M30.5589 36.127C28.4997 37.3182 26.1089 38 23.5589 38C17.0355 38 11.5541 33.5383 10 27.5H24.4339" stroke="#19358D" stroke-width="3" stroke-linecap="round"/>
</svg>
