<svg width="48" height="48" viewBox="0 0 48 48" fill="none" xmlns="http://www.w3.org/2000/svg">
<rect width="48" height="48" fill="#60B2E6"/>
<path d="M15.7188 20.2812L9.63881 26.3612C9.12476 26.8752 8.86773 27.1323 8.85036 27.3529C8.83529 27.5444 8.9128 27.7315 9.05885 27.8562C9.22716 28 9.59065 28 10.3176 28H20V37.6824C20 38.4093 20 38.7728 20.1437 38.9411C20.2685 39.0872 20.4556 39.1647 20.6471 39.1496C20.8677 39.1323 21.1248 38.8752 21.6388 38.3612L21.6388 38.3612L27.7188 32.2812C27.8226 32.1774 27.8745 32.1255 27.9116 32.065C27.9445 32.0113 27.9687 31.9528 27.9834 31.8915C28 31.8225 28 31.7491 28 31.6024V20H16.3976C16.2509 20 16.1775 20 16.1084 20.0166C16.0472 20.0313 15.9887 20.0555 15.935 20.0884C15.8745 20.1255 15.8226 20.1774 15.7188 20.2812L15.7188 20.2812Z" fill="#9FD0EF"/>
<path d="M32.2812 27.7188L38.3612 21.6388C38.8752 21.1248 39.1323 20.8677 39.1496 20.6471C39.1647 20.4556 39.0872 20.2685 38.9412 20.1438C38.7728 20 38.4093 20 37.6824 20H28V10.3176C28 9.59067 28 9.22718 27.8563 9.05886C27.7315 8.91281 27.5444 8.83531 27.3529 8.85038C27.1323 8.86774 26.8752 9.12477 26.3612 9.63882L20.2812 15.7188C20.1774 15.8226 20.1255 15.8745 20.0884 15.935C20.0555 15.9887 20.0313 16.0472 20.0166 16.1085C20 16.1775 20 16.2509 20 16.3976V28H31.6024C31.7491 28 31.8225 28 31.8916 27.9834C31.9528 27.9687 32.0113 27.9445 32.065 27.9116C32.1255 27.8745 32.1774 27.8226 32.2812 27.7188L32.2812 27.7188Z" fill="#FDFDFD"/>
</svg>
