<svg width="48" height="48" viewBox="0 0 48 48" fill="none" xmlns="http://www.w3.org/2000/svg">
<rect width="48" height="48" fill="#2356F6"/>
<path fill-rule="evenodd" clip-rule="evenodd" d="M36 37.1139C36 37.5032 35.5748 37.7432 35.2415 37.5419L30.2585 34.5326C30.0995 34.4366 29.9005 34.4366 29.7415 34.5326L24.2585 37.8439C24.0995 37.9399 23.9005 37.9399 23.7415 37.8439L12.2415 30.8988C12.0916 30.8083 12 30.6459 12 30.4708V17.5292C12 17.3541 12.0916 17.1917 12.2415 17.1012L23.7415 10.1561C23.9005 10.0601 24.0995 10.0601 24.2585 10.1561L35.7585 17.1012C35.9084 17.1917 36 17.3541 36 17.5292V26.0274C36 26.4274 35.5537 26.6654 35.2215 26.4427L31.5549 23.9838C31.4164 23.891 31.3333 23.7353 31.3333 23.5686V19.8514C31.3333 19.6676 31.2324 19.4985 31.0706 19.4113L24.2372 15.7279C24.0892 15.6481 23.9108 15.6481 23.7628 15.7279L16.9294 19.4113C16.7676 19.4985 16.6667 19.6676 16.6667 19.8514V28.1486C16.6667 28.3324 16.7676 28.5015 16.9294 28.5887L23.7371 32.2583C23.899 32.3456 24.0958 32.3369 24.2494 32.2357L29.7249 28.6283C29.8918 28.5183 30.1082 28.5183 30.2751 28.6283L35.7751 32.2518C35.9155 32.3443 36 32.5012 36 32.6693V37.1139Z" fill="#FDFDFD"/>
</svg>
