<svg width="48" height="48" viewBox="0 0 48 48" fill="none" xmlns="http://www.w3.org/2000/svg">
<rect width="48" height="48" fill="#58A87C"/>
<path d="M22.6429 18L14 26.6429H27.3571V40L36 31.3571V18H22.6429Z" fill="#9ACAB0"/>
<path fill-rule="evenodd" clip-rule="evenodd" d="M21.9358 17.2929C22.1233 17.1054 22.3776 17 22.6429 17H36C36.5523 17 37 17.4477 37 18V31.3571C37 31.6224 36.8946 31.8767 36.7071 32.0642L28.0642 40.7071C27.7783 40.9931 27.3481 41.0787 26.9745 40.9239C26.6008 40.7691 26.3571 40.4045 26.3571 40V27.6429H14C13.5955 27.6429 13.2309 27.3992 13.0761 27.0255C12.9213 26.6519 13.0069 26.2217 13.2929 25.9358L21.9358 17.2929ZM23.0571 19L16.4142 25.6429H27.3571C27.9094 25.6429 28.3571 26.0906 28.3571 26.6429V37.5858L35 30.9429V19H23.0571Z" fill="#9ACAB0"/>
<path d="M16.6429 12L8 20.6429H21.3571V34L30 25.3571V12H16.6429Z" fill="#FDFDFD"/>
<path fill-rule="evenodd" clip-rule="evenodd" d="M15.9358 11.2929C16.1233 11.1054 16.3776 11 16.6429 11H30C30.5523 11 31 11.4477 31 12V25.3571C31 25.6224 30.8946 25.8767 30.7071 26.0642L22.0642 34.7071C21.7783 34.9931 21.3481 35.0787 20.9745 34.9239C20.6008 34.7691 20.3571 34.4045 20.3571 34V21.6429H8C7.59554 21.6429 7.2309 21.3992 7.07612 21.0255C6.92134 20.6519 7.00689 20.2217 7.29289 19.9358L15.9358 11.2929ZM17.0571 13L10.4142 19.6429H21.3571C21.9094 19.6429 22.3571 20.0906 22.3571 20.6429V31.5858L29 24.9429V13H17.0571Z" fill="#FDFDFD"/>
</svg>
