<svg width="48" height="48" viewBox="0 0 48 48" fill="none" xmlns="http://www.w3.org/2000/svg">
<rect width="48" height="48" fill="#2775CA"/>
<path fill-rule="evenodd" clip-rule="evenodd" d="M19.2832 36.948C12.0693 34.3585 8.3698 26.3122 11.052 19.1907C12.4393 15.3062 15.4914 12.3468 19.2832 10.9595C19.6532 10.7746 19.8381 10.4971 19.8381 10.0345V8.73981C19.8381 8.3698 19.6532 8.09234 19.2832 8C19.1907 8 19.0058 8 18.9132 8.09234C10.1271 10.8669 5.31776 20.2082 8.09234 28.9942C9.75709 34.1734 13.7341 38.1504 18.9132 39.8151C19.2832 40 19.6532 39.8151 19.7456 39.4451C19.8381 39.3528 19.8381 39.2602 19.8381 39.0753V37.7803C19.8381 37.5029 19.5607 37.1331 19.2832 36.948ZM29.0868 8.09234C28.7168 7.90744 28.3468 8.09234 28.2544 8.46236C28.1619 8.55492 28.1619 8.64726 28.1619 8.83238V10.1271C28.1619 10.4971 28.4393 10.8669 28.7168 11.052C35.9307 13.6415 39.6302 21.6878 36.948 28.8093C35.5607 32.6938 32.5086 35.6532 28.7168 37.0405C28.3468 37.2254 28.1619 37.5029 28.1619 37.9655V39.2602C28.1619 39.6302 28.3468 39.9077 28.7168 40C28.8094 40 28.9943 40 29.0868 39.9077C37.8729 37.1331 42.6823 27.7919 39.9077 19.0058C38.2429 13.7341 34.1734 9.75709 29.0868 8.09234ZM24.2775 22.4278C28.1619 22.8902 30.1041 24 30.1041 27.2369C30.1041 29.7341 28.2544 31.6763 25.4799 32.1388V34.3585C25.3873 34.8209 25.1098 35.0983 24.7398 35.0983H23.3525C22.8902 35.0058 22.6127 34.7283 22.6127 34.3585V32.1388C19.5607 31.6763 18.0808 30.0115 17.711 27.6995V27.607C17.711 27.2369 17.9885 26.9595 18.3583 26.9595H19.9307C20.2082 26.9595 20.4856 27.1446 20.578 27.5144C20.8554 28.9017 21.6878 29.9192 24.0926 29.9192C25.8497 29.9192 27.1446 28.9019 27.1446 27.4221C27.1446 25.9422 26.3122 25.3873 23.7226 24.9249C19.8381 24.4624 17.9885 23.2602 17.9885 20.2081C17.9885 17.8959 19.7456 16.0463 22.5202 15.6763V13.5491C22.6127 13.0866 22.8902 12.8091 23.2602 12.8091H24.6475C25.1098 12.9017 25.3873 13.1791 25.3873 13.5491V15.7688C27.5144 15.9537 29.1792 17.5259 29.5492 19.5607V19.6532C29.5492 20.023 29.2717 20.3005 28.9017 20.3005H27.4221C27.1446 20.3005 26.8672 20.1156 26.7746 19.8381C26.3122 18.4508 25.3873 17.8959 23.7226 17.8959C21.8729 17.8959 20.948 18.7281 20.948 20.023C20.948 21.318 21.5029 22.0578 24.2775 22.4278Z" fill="white"/>
</svg>
