<svg width="48" height="48" viewBox="0 0 48 48" fill="none" xmlns="http://www.w3.org/2000/svg">
<rect width="48" height="48" fill="#50AF95"/>
<path fill-rule="evenodd" clip-rule="evenodd" d="M27.2555 24.9764V24.9764C27.0736 24.9884 26.1342 25.0378 24.0386 25.0378C22.3719 25.0378 21.1885 24.9937 20.7733 24.9764V24.9764C14.3321 24.7264 9.52432 23.7374 9.52432 22.5532C9.52432 21.369 14.3321 20.3813 20.7733 20.1273V23.9913C21.1946 24.018 22.4007 24.0809 24.0674 24.0809C26.0675 24.0809 27.0691 24.0074 27.2494 23.9927V20.13C33.677 20.3826 38.4742 21.3717 38.4742 22.5532C38.4742 23.7347 33.6785 24.7238 27.2494 24.975V24.975L27.2555 24.9764ZM27.2555 19.7304V16.2727H36.2256V11H11.8032V16.2727H20.7718V19.729C13.4821 20.0244 8 21.2982 8 22.8245C8 24.3508 13.4821 25.6232 20.7718 25.92V37H27.2539V25.916C34.527 25.6206 40 24.3482 40 22.8232C40 21.2982 34.5316 20.0258 27.2539 19.729V19.729L27.2555 19.7304Z" fill="white"/>
</svg>
