<svg width="48" height="48" viewBox="0 0 48 48" fill="none" xmlns="http://www.w3.org/2000/svg">
<rect width="48" height="48" fill="#FDFDFD"/>
<path fill-rule="evenodd" clip-rule="evenodd" d="M35.9373 20.8643C36.4366 17.5018 33.8951 15.6944 30.4198 14.4886L31.5472 9.93391L28.7946 9.24304L27.6971 13.6779C26.9735 13.4961 26.2303 13.3248 25.4917 13.155L26.5972 8.69087L23.8463 8L22.7183 12.5533C22.1194 12.4159 21.5313 12.2802 20.9606 12.1372L20.9638 12.1229L17.1679 11.1681L16.4357 14.1294C16.4357 14.1294 18.4779 14.6009 18.4349 14.6299C19.5495 14.9102 19.7511 15.6534 19.7176 16.2425L18.4334 21.4314C18.5101 21.4511 18.6097 21.4795 18.7196 21.5239L18.6396 21.5038C18.5717 21.4867 18.5011 21.4689 18.4286 21.4514L16.6286 28.7204C16.4923 29.0615 16.1466 29.5734 15.3673 29.379C15.3948 29.4193 13.3666 28.8761 13.3666 28.8761L12 32.0498L15.5821 32.9493C15.9743 33.0484 16.3619 33.1502 16.7456 33.2509C17.0138 33.3213 17.28 33.3912 17.5446 33.4594L16.4055 38.0663L19.155 38.7572L20.283 34.1991C21.0341 34.4045 21.763 34.594 22.4766 34.7725L21.3524 39.3091L24.1051 40L25.244 35.4017C29.9378 36.2964 33.4672 35.9357 34.9527 31.6593C36.1498 28.2163 34.8931 26.2304 32.4238 24.9354C34.2223 24.5176 35.5771 23.3261 35.9383 20.8647L35.9374 20.864L35.9373 20.8643ZM29.6482 29.7473C28.8678 32.9061 23.959 31.6002 21.7131 31.0027L21.7129 31.0026C21.5109 30.9489 21.3305 30.9009 21.1766 30.8624L22.6881 24.7589C22.8758 24.8061 23.1051 24.858 23.3649 24.9167C25.6881 25.4418 30.4478 26.5178 29.6483 29.7473H29.6482ZM23.8309 22.084C25.7034 22.5873 29.7881 23.6854 30.4995 20.8144H30.4997C31.2261 17.8781 27.2565 16.9929 25.3177 16.5605C25.0996 16.5118 24.9072 16.4689 24.75 16.4295L23.3796 21.9649C23.509 21.9974 23.6608 22.0383 23.8309 22.084Z" fill="#6347F5"/>
</svg>
