<svg width="48" height="48" viewBox="0 0 48 48" fill="none" xmlns="http://www.w3.org/2000/svg">
<rect width="48" height="48" fill="#FDFDFD"/>
<path d="M18.4689 10.1464L10 18.6154H28.8846C29.1608 18.6154 29.3846 18.8392 29.3846 19.1154V38L37.8536 29.5311C37.9473 29.4373 38 29.3101 38 29.1775L38 10.5C38 10.2239 37.7761 10 37.5 10H18.8225C18.6899 10 18.5627 10.0527 18.4689 10.1464Z" fill="#6347F5"/>
<path d="M17.7618 10.8536L10 18.6154V37.5C10 37.7761 10.2239 38 10.5 38H29.3846L37.1464 30.2382C37.4614 29.9232 37.2383 29.3846 36.7929 29.3846H19.1154C18.8392 29.3846 18.6154 29.1608 18.6154 28.8846V11.2071C18.6154 10.7617 18.0768 10.5386 17.7618 10.8536Z" fill="#6347F5" fill-opacity="0.5"/>
</svg>
